<svg width="100" height="42" viewBox="0 0 100 42" fill="none" xmlns="http://www.w3.org/2000/svg">
<path d="M99.4743 7.95441C98.9612 6.50974 98.0589 5.1869 96.7497 3.98591C95.4405 2.78492 93.7244 1.8276 91.6014 1.09656C89.4606 0.382926 86.913 0.0174058 83.9584 0.0174058C80.2785 0.0174058 76.9524 0.626606 73.9801 1.8276C70.9902 3.02859 68.4956 4.78657 66.4787 7.06672C64.4619 9.36428 63.0465 12.1666 62.215 15.4563C61.8611 16.9706 61.5073 18.5371 61.1535 20.1906C60.5696 22.4186 58.9773 23.7936 58.1635 24.7335C57.3851 25.6386 55.952 25.6038 55.2266 24.6639L53.5282 22.5056C52.8205 21.6005 53.0859 20.2951 54.0767 19.7033C55.1559 19.0767 56.1466 18.4327 57.0489 17.7886C58.4466 16.7791 59.5966 15.6651 60.4812 14.4293C61.3658 13.2109 61.985 11.8359 62.3565 10.3216C62.7457 8.5288 62.6219 6.85785 61.9673 5.27393C61.3127 3.70742 60.145 2.4194 58.4466 1.46208C56.7481 0.48736 54.4836 0 51.6352 0C48.5568 0 45.903 0.48736 43.6561 1.47949C42.3999 2.03647 41.2854 2.69789 40.3123 3.44633C39.7992 3.81185 39.1623 4.03813 38.4723 4.03813C37.7293 4.03813 37.0393 3.77704 36.5085 3.3593C35.3055 2.4368 33.837 1.67095 32.0678 1.07915C29.9271 0.36552 27.3795 0 24.4249 0C20.745 0 17.4189 0.6092 14.4466 1.81019C11.4567 3.01119 8.9621 4.76917 6.94521 7.04932C4.89294 9.36428 3.45989 12.1666 2.64606 15.4737C2.25683 17.1794 1.84992 18.9896 1.42531 20.8695C1.0184 22.7493 0.646863 24.5421 0.328407 26.1956C-0.255428 29.5723 -0.060816 32.4443 0.912243 34.794C1.90299 37.1438 3.60142 38.9366 6.04292 40.155C8.46672 41.3734 11.5628 42 15.3135 42C19.0642 42 22.4965 41.3734 25.5926 40.1028C26.4595 39.7547 27.2733 39.3543 28.0518 38.9192C28.2994 38.7625 28.6002 38.6755 28.9187 38.6755C29.3433 38.6755 29.7148 38.8322 30.0156 39.0758C30.7232 39.6676 31.5725 40.1898 32.5455 40.6075C34.7216 41.5475 37.4108 42 40.6131 42C42.8246 42 44.8945 41.7737 46.8406 41.3212C48.3445 40.9731 49.8306 40.4161 51.3167 39.6328C52.0952 39.2325 53.2982 39.5458 53.6167 40.0506C53.9351 40.5553 54.0943 41.0775 54.2713 41.3386C54.4482 41.5997 54.802 41.7737 54.802 41.7737C54.9966 41.913 55.2974 41.9826 55.6866 41.9826H65.7534C65.7711 41.9826 65.7711 41.9826 65.7887 41.9826H74.104C74.3517 41.9826 74.5994 42 74.8471 42C78.5978 42 82.03 41.3734 85.1261 40.1028C88.2222 38.8322 90.8229 37.022 92.8929 34.6548C94.9628 32.2876 96.3605 29.4331 97.0682 26.0912L98.4836 19.4422C98.5543 19.007 98.5012 18.6589 98.2712 18.363C98.0589 18.0671 97.7228 17.9279 97.2982 17.9279H82.3661C81.9238 17.9279 81.5346 18.0671 81.1808 18.363C80.8269 18.6589 80.6146 19.007 80.5262 19.4422L79.5708 23.7588C79.4824 24.1939 79.5531 24.5421 79.7831 24.838C79.9954 25.1339 80.3316 25.2731 80.7562 25.2731H84.9138C85.5507 25.2731 86.0638 25.7953 86.0638 26.4045C86.0638 26.4393 86.0638 26.4741 86.0638 26.5089C85.7453 28.1102 85.1438 29.4331 84.2592 30.4774C83.3569 31.5392 82.26 32.3398 80.9685 32.8446C79.677 33.3494 78.3147 33.6104 76.8462 33.6104C74.5994 33.6104 72.9186 33.0012 71.8394 31.8002C70.7602 30.5993 70.4417 28.6324 70.9194 25.9171C71.2379 24.2114 71.574 22.5056 71.9633 20.7824C72.3348 19.0767 72.724 17.4057 73.1132 15.7696C73.7855 13.2109 74.8824 11.3311 76.4393 10.1649C77.9785 8.99876 79.8716 8.42437 82.1361 8.42437C83.64 8.42437 84.8076 8.65064 85.6392 9.1206C86.4707 9.59055 87.0722 10.1475 87.4791 10.7741C87.8684 11.4182 88.1337 12.0274 88.2576 12.6191C88.3814 12.8976 88.5406 13.0891 88.7353 13.2283C88.9299 13.3676 89.2306 13.4372 89.6199 13.4372H98.2712C98.6605 13.4372 99.0143 13.3154 99.3151 13.0891C99.6158 12.8628 99.7927 12.5669 99.8812 12.2188C100.129 10.809 99.9874 9.38168 99.4743 7.95441ZM22.8503 17.9105C22.408 17.9105 22.0188 18.0497 21.6649 18.3456C21.3111 18.6415 21.0988 18.9896 21.0103 19.4248L20.055 23.7414C19.9665 24.1765 20.0373 24.5247 20.2673 24.8206C20.4796 25.1164 20.8157 25.2557 21.2403 25.2557H25.398C26.0349 25.2557 26.5479 25.7779 26.5479 26.3871C26.5479 26.4219 26.5479 26.4741 26.5479 26.5089C26.2295 28.1102 25.6279 29.4331 24.7433 30.46C23.8411 31.5218 22.7442 32.3224 21.4526 32.8272C20.1611 33.332 18.7988 33.593 17.3304 33.593C15.0835 33.593 13.4028 32.9838 12.3236 31.7828C11.2444 30.5818 10.9259 28.615 11.4036 25.8997C11.722 24.1939 12.0582 22.4882 12.4474 20.765C12.819 19.0593 13.2082 17.3883 13.5974 15.7522C14.2697 13.1935 15.3666 11.3137 16.9235 10.1475C18.4627 8.98135 20.3557 8.40696 22.6203 8.40696C24.1241 8.40696 25.2918 8.63324 26.1233 9.10319C26.9548 9.57314 27.5564 10.1301 27.9633 10.7567C28.3525 11.4007 28.6179 12.0099 28.7417 12.6017C28.8656 12.8802 29.0248 13.0717 29.2194 13.2109C29.414 13.3502 29.7148 13.4198 30.104 13.4198H34.4209C35.0401 13.4546 35.5532 13.8898 35.677 14.4642C35.677 14.499 35.6947 14.5164 35.6947 14.5512C35.8362 15.1778 36.0485 15.8044 36.3493 16.4484C36.4201 16.5877 36.4554 16.7269 36.4554 16.8835C36.4554 17.4405 35.9955 17.8931 35.4293 17.9105H22.8503ZM45.2484 33.1057C44.4168 33.3145 43.5145 33.419 42.5238 33.419C41.7807 33.419 41.0731 33.2623 40.4538 32.9316C39.8169 32.6009 39.3392 32.131 39.0385 31.5044C38.72 30.8777 38.6493 30.1641 38.8085 29.346C39.0031 28.4932 39.4631 27.7273 40.1708 27.0659C40.3831 26.8744 40.5954 26.683 40.8254 26.5089C41.6746 25.8475 42.8953 25.9693 43.5676 26.8048L46.2745 30.1815C47.0883 31.2259 46.5576 32.775 45.2484 33.1057ZM52.2367 10.7393C52.1128 11.2789 51.8475 11.7837 51.4052 12.2536C50.9629 12.7236 50.4321 13.1413 49.8129 13.5068C49.636 13.6113 49.4591 13.7157 49.2644 13.8201C48.3091 14.3249 47.0883 13.9768 46.6283 13.0195C46.5399 12.8454 46.4691 12.6714 46.416 12.4973C46.2037 11.8707 46.1507 11.2963 46.2745 10.7567C46.4337 9.90385 46.876 9.22503 47.6014 8.72027C48.3268 8.2155 49.0875 7.95441 49.8837 7.95441C50.7859 7.95441 51.4582 8.2155 51.9005 8.72027C52.3252 9.20763 52.4313 9.88645 52.2367 10.7393Z" fill="#F07300"/>
</svg>
