<svg width="40" height="24" viewBox="0 0 40 24" fill="none" xmlns="http://www.w3.org/2000/svg">
<path d="M40.0001 12C40.0001 18.5846 34.6462 24 28 24C21.4154 24 16 18.5846 16 12C16 5.41538 21.3539 0 27.9385 0C34.6462 0 40.0001 5.41538 40.0001 12Z" fill="#F9B50B"/>
<path d="M23.9385 12.0615C23.9385 11.2 23.8154 10.3385 23.6924 9.53846H16.3077C16.3693 9.10769 16.4923 8.73846 16.6154 8.24615H23.2001C23.077 7.81538 22.8924 7.38462 22.7077 6.95385H17.1077C17.2923 6.52308 17.5385 6.15385 17.7847 5.66154H22.0308C21.7847 5.23077 21.477 4.8 21.1077 4.36923H18.7693C19.1385 3.93846 19.5077 3.56923 20 3.13846C17.9077 1.16923 15.077 0 11.9385 0C5.4154 0.184615 0 5.41538 0 12C0 18.5846 5.35386 24 12 24C15.1385 24 17.9077 22.7692 20.0616 20.8615C20.4924 20.4923 20.8616 20.0615 21.2924 19.5692H18.8308C18.5231 19.2 18.2154 18.7692 17.9693 18.3385H22.1539C22.4 17.9692 22.6462 17.5385 22.8308 17.0462H17.2308C17.0462 16.6769 16.8616 16.2462 16.7385 15.7538H23.3231C23.6924 14.6462 23.9385 13.4154 23.9385 12.0615Z" fill="#C8191C"/>
<path d="M16.2456 15.0766L16.4302 13.9689C16.3686 13.9689 16.2456 14.0304 16.1225 14.0304C15.6917 14.0304 15.6302 13.7843 15.6917 13.6612L16.061 11.4458H16.7379L16.9225 10.215H16.3071L16.4302 9.47656H15.1379C15.1379 9.47656 14.3994 13.6612 14.3994 14.1535C14.3994 14.8919 14.8302 15.2612 15.4456 15.2612C15.8148 15.2612 16.1225 15.1381 16.2456 15.0766Z" fill="white"/>
<path d="M16.6768 13.0417C16.6768 14.8263 17.9075 15.2571 18.8921 15.2571C19.8152 15.2571 20.246 15.0725 20.246 15.0725L20.4922 13.8417C20.4922 13.8417 19.8152 14.1494 19.1383 14.1494C17.7229 14.1494 17.9691 13.1033 17.9691 13.1033H20.5537C20.5537 13.1033 20.7383 12.3033 20.7383 11.934C20.7383 11.134 20.3075 10.0879 18.8921 10.0879C17.6614 10.0263 16.6768 11.4417 16.6768 13.0417ZM18.8921 11.1956C19.5691 11.1956 19.446 11.9956 19.446 12.0571H18.0306C18.0921 11.9956 18.2152 11.1956 18.8921 11.1956Z" fill="white"/>
<path d="M26.954 15.0748L27.2001 13.6594C27.2001 13.6594 26.5848 13.9671 26.0925 13.9671C25.2309 13.9671 24.8001 13.2901 24.8001 12.4901C24.8001 10.9517 25.5386 10.1517 26.4617 10.1517C27.0771 10.1517 27.6309 10.5209 27.6309 10.5209L27.8155 9.16707C27.8155 9.16707 27.0771 8.85938 26.3386 8.85938C24.8617 8.85938 23.4463 10.1517 23.4463 12.5517C23.4463 14.1517 24.1848 15.1978 25.7232 15.1978C26.2771 15.2594 26.954 15.0748 26.954 15.0748Z" fill="white"/>
<path d="M9.29161 10.0312C8.43007 10.0312 7.75314 10.2774 7.75314 10.2774L7.56853 11.3851C7.56853 11.3851 8.12237 11.1389 8.98391 11.1389C9.41468 11.1389 9.78392 11.2005 9.78392 11.5697C9.78392 11.8159 9.72238 11.8774 9.72238 11.8774H9.16853C8.06083 11.8774 6.8916 12.3082 6.8916 13.7851C6.8916 14.9543 7.63006 15.2005 8.12237 15.2005C8.98391 15.2005 9.41468 14.6466 9.47622 14.6466L9.41468 15.1389H10.4608L10.9531 11.6313C10.9531 10.0928 9.72238 10.0312 9.29161 10.0312ZM9.53776 12.862C9.53776 13.0466 9.41468 14.0928 8.67622 14.0928C8.30699 14.0928 8.18391 13.7851 8.18391 13.6005C8.18391 13.2928 8.36853 12.862 9.35315 12.862C9.47622 12.862 9.53776 12.862 9.53776 12.862Z" fill="white"/>
<path d="M12.184 15.1995C12.4917 15.1995 14.0917 15.2611 14.0917 13.538C14.0917 11.938 12.5532 12.2457 12.5532 11.6303C12.5532 11.3226 12.7994 11.1995 13.2301 11.1995C13.4147 11.1995 14.0917 11.2611 14.0917 11.2611L14.2763 10.0918C14.2763 10.0918 13.8455 9.96875 13.0455 9.96875C12.1224 9.96875 11.1378 10.338 11.1378 11.6303C11.1378 13.1072 12.7378 12.9841 12.7378 13.538C12.7378 13.9072 12.3071 13.9688 11.9994 13.9688C11.4455 13.9688 10.8301 13.7841 10.8301 13.7841L10.6455 14.9534C10.7686 15.0764 11.1378 15.1995 12.184 15.1995Z" fill="white"/>
<path d="M37.538 9.04688L37.2918 10.77C37.2918 10.77 36.7995 10.1546 36.0611 10.1546C34.8918 10.1546 33.9072 11.57 33.9072 13.2315C33.9072 14.2776 34.3995 15.3238 35.5072 15.3238C36.2457 15.3238 36.738 14.8315 36.738 14.8315L36.6765 15.2623H37.9688L38.8919 9.16995L37.538 9.04688ZM36.9226 12.37C36.9226 13.0469 36.6149 13.97 35.8765 13.97C35.4457 13.97 35.1995 13.6007 35.1995 12.9238C35.1995 11.8776 35.6303 11.2623 36.2457 11.2623C36.6765 11.3238 36.9226 11.6315 36.9226 12.37Z" fill="white"/>
<path d="M2.33819 15.1392L3.07666 10.5853L3.19973 15.1392H4.06127L5.72282 10.5853L5.04589 15.1392H6.39974L7.4459 9.04688H5.35358L4.06127 12.8007L3.99974 9.04688H2.15358L1.10742 15.1392H2.33819Z" fill="white"/>
<path d="M22.0306 15.1409C22.3999 13.0486 22.4614 11.3255 23.3845 11.6332C23.5075 10.8332 23.6922 10.4639 23.8152 10.1562H23.5691C23.0152 10.1562 22.5229 10.8947 22.5229 10.8947L22.646 10.2178H21.4152L20.6152 15.1409H22.0306Z" fill="white"/>
<path d="M29.9078 10.0312C29.0463 10.0312 28.3694 10.2774 28.3694 10.2774L28.1847 11.3851C28.1847 11.3851 28.7386 11.1389 29.6001 11.1389C30.0309 11.1389 30.4001 11.2005 30.4001 11.5697C30.4001 11.8159 30.3386 11.8774 30.3386 11.8774H29.7847C28.677 11.8774 27.5078 12.3082 27.5078 13.7851C27.5078 14.9543 28.2463 15.2005 28.7386 15.2005C29.6001 15.2005 30.0309 14.6466 30.0924 14.6466L30.0309 15.1389H31.2001L31.6924 11.6313C31.6924 10.0928 30.3386 10.0312 29.9078 10.0312ZM30.2155 12.862C30.2155 13.0466 30.0924 14.0928 29.354 14.0928C28.9847 14.0928 28.8617 13.7851 28.8617 13.6005C28.8617 13.2928 29.0463 12.862 30.0309 12.862C30.154 12.862 30.154 12.862 30.2155 12.862Z" fill="white"/>
<path d="M32.6771 15.1409C33.0463 13.0486 33.1079 11.3255 34.031 11.6332C34.154 10.8332 34.3386 10.4639 34.4617 10.1562H34.2156C33.6617 10.1562 33.1694 10.8947 33.1694 10.8947L33.2925 10.2178H32.0617L31.2617 15.1409H32.6771Z" fill="white"/>
</svg>
