<svg width="60" height="18" viewBox="0 0 60 18" fill="none" xmlns="http://www.w3.org/2000/svg">
<path d="M53.8315 0.597656H42.2803C42.9532 4.41077 46.654 7.99958 50.6913 7.99958H59.8875C59.9996 7.66313 59.9996 7.10237 59.9996 6.76592C59.9996 3.40141 57.1959 0.597656 53.8315 0.597656Z" fill="url(#paint0_linear_630_2925)"/>
<path d="M43.2861 8.69141V17.9999H48.8935V13.0653H53.828C56.5195 13.0653 58.8747 11.1587 59.6597 8.69141H43.2861Z" fill="#4FAD50"/>
<path d="M23.5479 0.597656V17.8688H28.4824C28.4824 17.8688 29.716 17.8688 30.3889 16.6352C33.7533 10.0183 34.7626 7.99958 34.7626 7.99958H35.4355V17.8688H41.0429V0.597656H36.1084C36.1084 0.597656 34.8748 0.709813 34.2019 1.83132C31.3982 7.55098 29.8281 10.4669 29.8281 10.4669H29.1552V0.597656H23.5479Z" fill="#4FAD50"/>
<path d="M-0.000976562 17.9938V0.722656H5.60641C5.60641 0.722656 7.17649 0.722653 8.07367 3.18996C10.3166 9.69468 10.5409 10.5919 10.5409 10.5919C10.5409 10.5919 10.9895 9.02178 13.0082 3.18996C13.9053 0.722653 15.4754 0.722656 15.4754 0.722656H21.0828V17.9938H15.4754V8.68534H14.8025L11.6624 17.9938H9.19514L6.05502 8.68534H5.38213V17.9938H-0.000976562Z" fill="#4FAD50"/>
<defs>
<linearGradient id="paint0_linear_630_2925" x1="42.2603" y1="4.35167" x2="59.9599" y2="4.35167" gradientUnits="userSpaceOnUse">
<stop stop-color="#27B1E6"/>
<stop offset="1" stop-color="#148ACA"/>
</linearGradient>
</defs>
</svg>
