<svg width="36" height="36" viewBox="0 0 36 36" fill="none" xmlns="http://www.w3.org/2000/svg">
<path fill-rule="evenodd" clip-rule="evenodd" d="M18 36C27.941 36 36 27.941 36 18C36 8.05896 27.941 0 18 0C8.05896 0 0 8.05896 0 18C0 27.941 8.05896 36 18 36ZM25.9117 11.4998C26.0507 9.92304 24.3853 10.5725 24.3853 10.5725C23.1559 11.0815 21.888 11.5985 20.6064 12.1212C16.632 13.7423 12.5266 15.417 9.02916 17.0654C7.13268 17.761 8.24292 18.4565 8.24292 18.4565L11.2493 19.3842C12.6371 19.8018 13.3769 19.3378 13.3769 19.3378L19.8526 14.9321C22.1652 13.3553 21.6101 14.6538 21.055 15.2104L16.1986 19.8479C15.4584 20.4973 15.8285 21.0539 16.1521 21.3322C17.0701 22.1418 19.3273 23.6232 20.3126 24.2698C20.569 24.4379 20.7392 24.5498 20.7778 24.5786C21.0089 24.764 22.2577 25.5989 23.0904 25.4135C23.9231 25.2277 24.0156 24.161 24.0156 24.161L25.1255 16.8797C25.2918 15.6157 25.483 14.4007 25.6356 13.4302C25.7796 12.5136 25.8894 11.8156 25.9117 11.4998Z" fill="#F07300"/>
</svg>
