<svg width="40" height="14" viewBox="0 0 40 14" fill="none" xmlns="http://www.w3.org/2000/svg">
<path d="M37.3105 1.03174H34.7959C34.0357 1.03174 33.4509 1.26566 33.1 2.02589L28.3047 12.9616H31.6965C31.6965 12.9616 32.2813 11.4996 32.3983 11.1487C32.7491 11.1487 36.0825 11.1487 36.5503 11.1487C36.6673 11.5581 36.9597 12.9031 36.9597 12.9031H40.0006L37.3105 1.03174ZM33.3339 8.69256C33.6263 7.9908 34.6205 5.35922 34.6205 5.35922C34.6205 5.4177 34.9129 4.65747 35.0298 4.24811L35.2638 5.30074C35.2638 5.30074 35.907 8.16624 36.024 8.75104H33.3339V8.69256Z" fill="#3362AB"/>
<path d="M28.5385 9.047C28.5385 11.5031 26.3163 13.1406 22.866 13.1406C21.404 13.1406 20.0005 12.8482 19.2402 12.4973L19.7081 9.80723L20.1174 9.98267C21.1701 10.4505 21.8718 10.6259 23.1584 10.6259C24.094 10.6259 25.0882 10.2751 25.0882 9.45635C25.0882 8.93004 24.6788 8.57916 23.3923 7.99437C22.1642 7.40957 20.5268 6.4739 20.5268 4.77799C20.5268 2.43881 22.8075 0.859863 26.0239 0.859863C27.2519 0.859863 28.3046 1.09378 28.9478 1.38618L28.48 3.95928L28.2461 3.72536C27.6613 3.49144 26.9011 3.25752 25.7899 3.25752C24.5619 3.316 23.9771 3.84232 23.9771 4.31016C23.9771 4.83647 24.6788 5.24583 25.7899 5.77214C27.6613 6.64934 28.5385 7.64349 28.5385 9.047Z" fill="#3362AB"/>
<path d="M0 1.15628L0.0584795 0.922363H5.08772C5.78947 0.922363 6.31579 1.15628 6.49123 1.91652L7.60234 7.17967C6.49123 4.37266 3.91813 2.09195 0 1.15628Z" fill="#F9B50B"/>
<path d="M14.6788 1.03553L9.59107 12.9069H6.14077L3.2168 2.96535C5.32206 4.31038 7.07645 6.41565 7.71972 7.87763L8.0706 9.1057L11.2285 0.977051H14.6788V1.03553Z" fill="#3362AB"/>
<path d="M16.0233 0.977051H19.2397L17.1929 12.9069H13.9766L16.0233 0.977051Z" fill="#3362AB"/>
</svg>
