<svg width="36" height="36" viewBox="0 0 36 36" fill="none" xmlns="http://www.w3.org/2000/svg">
<path fill-rule="evenodd" clip-rule="evenodd" d="M18 36C27.941 36 36 27.941 36 18C36 8.05896 27.941 0 18 0C8.05896 0 0 8.05896 0 18C0 27.941 8.05896 36 18 36ZM16.1712 8.49096C16.4348 8.4464 16.6973 8.39575 16.9585 8.33904C17.0752 8.31024 17.5831 8.28396 18.0868 8.28036C18.8237 8.27568 19.1675 8.30448 19.8472 8.42796C22.6706 8.94204 24.8576 10.3792 26.4971 12.7966C27.2135 13.8528 27.7942 15.3439 27.9608 16.555C28.0735 17.3743 28.0562 19.3478 27.9306 20.0225C27.7963 20.7446 27.3895 21.9528 27.058 22.6145C26.2904 24.1445 25.0578 25.5431 23.6819 26.4442C23.256 26.7228 22.563 27.1076 22.3002 27.211C22.1836 27.2567 22.0594 27.3157 22.0244 27.342C21.8851 27.4464 20.8069 27.7708 20.1031 27.9194C19.4526 28.057 19.2074 28.0778 18.2027 28.0796C17.1724 28.0822 16.9654 28.0645 16.2605 27.9158C14.8698 27.6228 13.7333 27.1663 12.8084 26.5298C12.5971 26.3844 12.4272 26.3992 11.2219 26.667C9.90648 26.9593 9.57672 27.0054 9.46512 26.9125C9.3276 26.7988 9.34452 26.6245 9.60912 25.4174C9.87876 24.1902 9.9468 23.9 9.86184 23.6653C9.83232 23.5836 9.78408 23.5084 9.71892 23.4022C8.74944 21.8203 8.28468 20.1398 8.28 18.1966C8.27568 16.4866 8.59212 15.1186 9.32328 13.6872C9.585 13.1746 10.044 12.434 10.2809 12.1417C10.552 11.808 11.9855 10.3939 12.1932 10.2553C13.0615 9.67788 13.2613 9.55944 13.8931 9.25092C14.5807 8.91468 15.5009 8.6076 16.1716 8.49132L16.1712 8.49096ZM14.562 16.5298C14.2204 15.6247 14.0929 15.3367 13.9842 15.2284C13.8704 15.1142 13.7736 15.1016 12.8725 15.0844C11.8022 15.0635 11.7554 15.0764 11.65 15.4228C11.6071 15.5632 11.8789 16.6298 11.9855 16.7393C12.0187 16.7768 12.0385 16.8243 12.0416 16.8743C12.0416 16.9499 12.2774 17.4956 12.5528 18.0562C12.6954 18.3467 13.5572 19.8144 13.6166 19.8684C13.635 19.8853 13.8136 20.1175 14.0134 20.3843C14.562 21.1176 15.3716 21.8351 16.0877 22.2221C16.7634 22.5875 17.8531 22.7909 18.6232 22.6944C19.1704 22.626 19.2046 22.5655 19.2046 21.6572C19.2046 20.4754 19.3396 20.2943 19.9843 20.6122C20.2471 20.7418 21.1554 21.5935 21.7541 22.2718C21.9042 22.442 22.0867 22.6127 22.1598 22.6512C22.2984 22.7246 24.2093 22.7538 24.3882 22.685C24.5668 22.6166 24.574 22.2638 24.4037 21.9154C24.2071 21.5132 23.5411 20.6806 22.8064 19.9174C22.4176 19.5138 22.2394 19.2838 22.2394 19.1855C22.2394 19.0631 22.5421 18.5026 22.6573 18.4115C22.6958 18.3812 23.0015 17.9294 23.1188 17.73C23.1527 17.6724 23.3478 17.3448 23.5523 17.0017C24.0793 16.1179 24.1841 15.8929 24.2233 15.561C24.255 15.2946 24.2438 15.2586 24.1027 15.1661C23.9706 15.0797 23.8068 15.0671 23.0069 15.084C22.1105 15.1024 22.0597 15.1103 21.9114 15.2496C21.8261 15.3299 21.739 15.453 21.7184 15.5225C21.658 15.7259 21.0175 16.9715 20.9264 17.0626C20.8807 17.1083 20.8436 17.1724 20.8436 17.2055C20.8436 17.3066 20.2986 18.0612 20.0016 18.3719C19.6765 18.7114 19.4918 18.8039 19.3219 18.7128C19.2103 18.6534 19.2046 18.5692 19.2035 17.0284C19.2028 15.8429 19.1819 15.3662 19.1257 15.255L19.049 15.1034H16.326L16.236 15.2644C16.1496 15.4174 16.1572 15.4447 16.385 15.8108L16.6248 16.196V17.744C16.6248 19.2884 16.6248 19.292 16.4927 19.3108C16.3127 19.336 15.9509 18.9997 15.6053 18.4842C15.3184 18.0565 14.7031 16.9042 14.562 16.5298Z" fill="#F07300"/>
</svg>
